<svg xmlns="http://www.w3.org/2000/svg" width="69.492" height="42.154" viewBox="0 0 69.492 42.154"><g fill="#FFF"><path d="M.597 18.925c.009.006.021.021.031.03.003-.028.022-.04.013-.079H.635c-.013.018-.027.032-.038.049zM8.197 22.693c.009.131.018.264.159.252-.047-.088-.002-.278-.159-.252zM7.984 24.802c.024.117.051.236.125.303 0-.158-.087-.428-.144-.449-.071-.559-.145-1.113-.222-1.693.001-.055-.029-.131-.055-.051.251 1.693-.121 3.451.59 4.701a63.73 63.73 0 0 0-.294-2.811zM7.927 22.083c-.117-.334-.266-.916-.34-1.12-.057.489.196 1.193.34 1.12zM15.657.953c-.036-.189.054-.513-.067-.613.037.191-.052.513.067.613zM17.572 3.518c.069-.003.05.087.105.099.133-.641-.123-1.211-.299-1.581-.006.061.012.146-.045.155-.012-.075.012-.189-.061-.203-.006.06.013.146-.045.154-.086-.086-.035-.314-.164-.354.051.722.287 1.241.461 1.835.009-.043.001-.102.048-.105zM7.178 24.773c.004-.18-.023-.33-.113-.41-.004.181.021.328.113.41zM19.059 39.32c-.023-.029-.033-.062-.051-.09.009.035.006.09.051.09zM19.005 39.216v.004l.003.01zM18.134 6.491a1.933 1.933 0 0 0-.136-.576c.055.187.097.379.136.576zM8.291 31.765c.021-.07-.057-.111-.057-.154-.008-.623-.181-.082.057.154zM8.322 38.585c-.021-.186-.105-.498-.17-.561.004.311-.073.454.17.561zM16.551 41.386c-.049.004-.062-.041-.104-.047.016.236.157.416.069.611.19-.051.093-.641.03-.771l.005.207zM9.442 40.197c.013-.123.245-.037.2-.211-.074-.012-.088-.082-.156-.098.082.164-.238.199-.044.309zM17.412 22.031c-.024.146-.068.271-.093.414.239-.022.201-.281.093-.414zM17.178 19.169c-.056.361-.02.713.078 1.023-.001-.333.05-.729-.078-1.023zM17.173 20.806c-.141 0-.101.091-.206.006-.018.162.133.141.211.201-.002-.069-.005-.137-.005-.207zM17.043 21.734c-.006-.187.018-.405-.115-.458 0 .185-.186.19-.193.365.138.058.13.192.308.093zM17.009 18.554c.083-.247.012-.707-.022-.816-.071.166-.075.658.022.816zM17.443 21.364c-.203-.077-.011.224-.148.211.045-.221.113-.526.085-.67.066 0 .05.091.106.1-.012-.094-.039-.168-.109-.201-.25.35-.153 1.01.082 1.125.033-.256-.009-.271-.016-.565zM19.971 36.986c-.023.092-.063.572.171.559-.085-.159.005-.501-.171-.559z"/><path d="M17.266 18.599c-.107-.423-.045-1.185-.091-1.484-.022.095-.056-.019-.106-.045-.018.097-.104.131-.094.256.271.201-.068 1.052.291 1.273zM17.557 25.515c.013-.102.103-.555-.012-.463.092.244-.214.397.012.463zM16.52 19.491c.016-.219.17-.57.086-.721-.072.168-.018.539-.193.467.141-.025-.034.284.107.254zM17.488 19.21c-.029.123-.062.297.012.412.007-.098.123-.346-.012-.412zM17.489 23.056c-.036-.191.069-.531-.118-.561.049.129.022.352-.037.514.072-.006.113.022.155.047zM18.205 26.781c-.18-.303.078-.863-.127-.92.004.203.011.41.017.613-.214-.057-.057.434-.139.568.202-.058.025-.324.249-.261zM17.781 28.226c.029.242-.082.355-.033.615.19-.006.099-.533.033-.615zM8.343 29.919c.008-.078-.022-.189.046-.207.013.146-.035.352.111.355-.068-.158-.024-.43-.215-.457.031.093-.056.304.058.309zM17.65 28.998c.057.121.122.504.166.461-.032-.166.027-.24.043-.361-.16.062-.129-.079-.209-.1zM17.678 22.384c-.093-.305.072-.837-.084-1.178.065.485-.148.827.084 1.178zM16.737 19.897c.198.328.033.498.224.66-.029-.242.051-.416.142-.414-.182-.271-.057-.625-.022-.82-.1-.014-.1.072-.152.104.087-.104.039-.479-.109-.304.067.261.198.702-.083.774z"/><path d="M19.597 38.38c-.079-.252-.448-.33-.114-.459-.061-.004-.144.014-.154-.047-.049-.318.178-.115.144-.359-.189.148-.159-.383-.423-.451-.084.197-.122.379.016.564-.149-.041-.138.1-.25.211-.043-.229.035-.295.038-.414.021-.627-.087-.039-.194.314-.018-.449.191-1.902-.074-.768-.369-2.141.033-4.789-.19-7.07-.241-.975-.097-1.994-.287-3.021.009.229-.009.426-.087.57-.032-.092.055-.305-.059-.307-.087.365.051.621.031 1.176 0-.051.086-.064.103-.002-.082.018-.032.115.003.156-.125-.205-.207.252-.099.104.009-.041-.001-.1.048-.104.149 1.006.113 2.125-.077 2.77-.033-.367-.197-.08-.123-.662.066-.129.194.051.203-.059-.08-.012-.038-.109-.003-.154-.166-.039-.104.137-.2.158-.175-.281.089-.74-.128-.92-.045.156-.006.314-.041.361-.049-.324-.172-.99.016-1.334-.223-.352-.162-1.24-.103-1.895.012.039.003.102.054.102.027-.297-.119-.955-.086-1.281-.069.035-.001.197-.096.209.059-.381-.373-.52-.177-.865.091.42-.031-.305.147-.26-.088.096-.057.369.062.406.071-.303-.187-.672.084-.721.03.16-.116.215.058.258.054-.57-.074-.676.022-.977-.087-.02-.128.078-.152.004.048-.107.274-.301.09-.465-.018.098.081.307-.094.26-.136-.281.27-.309.091-.467-.015.223-.175.076-.254.16.006.18-.015.488.11.254-.026.076.065.264-.044.258-.057-.236-.075.062-.103.055-.182-.324-.048-.996-.139-1.279-.01.059-.054.082-.1.105-.119-.193.057-.236.04-.463-.234.102-.111.055-.252.213.133.053-.015.604.161.303.051.242-.119.145-.147.211-.04.416.121.969-.016 1.332-.004-.365-.246-.564-.024-.924-.233-.643-.126-1.268-.206-1.889.053-.003.062.037.104.048-.34-.438.103-.843-.289-1.177.048.345.053.949-.015 1.334-.03-.668-.155-1.172-.099-1.79.051-.003.102-.003.154-.006.025.248-.116.395.115.46.032-.152.05-.319.143-.413-.221.013-.245-.184-.361-.144.051-.04-.271-.576-.009-.257-.136-.31-.207-1.058.184-.825-.022-.17-.097-.426.142-.465-.179-.172.06-.566-.16-.254.016-.814.22-1.454.244-2.262.122.013.119.156.211.2-.018-.238.061-.073.202-.157.272.549-.028 1.565.308 1.941-.098-.217-.058-.742-.135-1.229.071-.022.085-.065.153-.004-.302-.253.015-.499.03-.82 0-.003-.102-.007-.106-.05-.028-.594.046-1.364 0-1.947.374-.197.083-1.35.26-1.803.003.138.028.293-.04.359.145-.027.141-.196.194-.311-.183.055-.108-.268-.004-.103-.213-.656-.325-1.62-.137-2.153.009.023.032.041.081.054-.035-.673-.219-1.086.113-1.543.009.058-.006.146.057.151.012-.119.023-.238.197-.209.006.27-.01.523-.082.72-.062-.809.016.282-.154.003.051.273-.021.385.116.51.042-.244-.026-.287.144-.412-.066.783.179 1.669.122 2.611-.013-1.469.128-3.323-.165-4.852.039.393.014.816.016 1.268-.313-.017-.389.195-.555.321.045-.875-.062-1.052.104-1.798-.229-.068.006.305-.146.312-.011-.604-.063-.937.063-1.489.012.478.029.803-.021 1.128.426-.579-.08-1.464-.158-2.148-.21.122-.158-.076-.263-.147.095.067-.202.081-.155-.098.037.203-.188.156-.196.314-.171-.182-.034-.749.022-1.028.033.157-.055.442.063.513-.015-.207-.012-.211.151-.159-.032-.67.008-1.694-.16-2.047-.054.313-.059.675-.18.927-.08-.359-.119-.801-.105-.1-.001.065-.063.074-.046.156-.024.344.089.816-.024 1.076-.176.01-.164-.875-.014-.562-.03-.074.051-.267-.059-.255-.116.141-.048.455-.243.519.043-.394.038-.744-.128-.972.008.159-.016.287-.096.362-.029-.075.057-.266-.061-.254-.068.19-.033.479-.128.65l-.021-.019c-.023-.068-.036-.193-.116-.088a.25.25 0 0 1-.024-.016c-.004-.191.021-.415-.116-.469-.025.108.065.321-.034.358l-.008-.006c-.006-.061.004-.135-.053-.141l-.02.094a6.527 6.527 0 0 0-.234-.148c-.004-.188-.018-.364-.118-.449-.002.123 0 .252 0 .377a6.406 6.406 0 0 0-.458-.236c-.016-.029-.021-.061-.053-.075-.004.012-.006.031-.008.046a16.88 16.88 0 0 0-.556-.25c.003-.068-.005-.131-.062-.141a.251.251 0 0 0-.076.085l-.094-.04c.012-.093.012-.176-.04-.242.02.209-.014.117-.15.107 0 .021-.003.033-.003.055-.021-.008-.037-.019-.057-.024-.004-.037-.019-.044-.041-.019-.02-.006-.034-.016-.054-.023-.03-.434.223-.757.126-1.066a9.18 9.18 0 0 0-.263 1.009 4.975 4.975 0 0 1-.228-.101c0-.074.012-.152-.004-.227-.02.066-.031.137-.045.209a14.701 14.701 0 0 1-.477-.221c-.839-.418-.781-.495-1.039-.497-.012-.03-.029-.028-.045.002-.154.005-.418.026-.973.026-.089 0-.182 0-.273.006 0 .099-.101.151-.051.299-.65.152-.851.603-1.201.95.014.057.027.101.041.151-.038.02-.082.037-.117.06 0-.12.085-.154.045-.312-.239.166-.845.579-.534 1.045-.016-.023.02-.114.051-.104.025.248-.158.636.071.767-.128-.003-.164-.095-.206.056.066-.008.086.096.082.194-.031.054-.057.109-.084.163a.23.23 0 0 1-.041-.097.236.236 0 0 0 .003.166c-.019.043-.043.083-.065.123-.01-.012-.024-.021-.036-.033 0 .038.004.065.004.097a63.33 63.33 0 0 0-1.357 2.863c-.004-.066.066-.072.045-.156a.563.563 0 0 0-.1.272C4.992 11.283 3.383 15.225 0 17.999c.048.062.092.102.138.158-.048.041-.087.084-.138.123.029.038.057.064.086.1.038-.032.086-.049.138.006.003.004-.003.02-.003.025.048-.021.084-.018.122-.018.108.109.217.199.322.277.003.01.006.016.009.021.008 0 .008 0 .014-.004.006.008.014.012.02.018a.064.064 0 0 1 .004.033c.006.015.018.028.025.037.01.01.043.003.063.002.083.052.164.083.245.115.026.097.05.213.05.239 0 .021-.009.038-.015.06.084.037.167.063.25.081-.021-.05-.038-.097-.058-.141.139.054.263.103.384.161.064-.004.128-.032.19-.045a.387.387 0 0 1-.128-.025.619.619 0 0 1-.093-.21c.093-.003.183-.021.271-.042.064.105.081.237-.015.27.097-.021.197-.029.292-.07.024-.1.144-.238.254-.131.132-.076.259-.173.384-.275a.146.146 0 0 1 .076-.061c.553-.484 1.048-1.171 1.465-1.724.185-.234.341-.491.504-.744-.014-.03-.027-.052-.039-.087a.309.309 0 0 0 .045.078c.059-.093.125-.174.182-.269-.012-.12-.029-.255 0-.269a.278.278 0 0 1 .166-.021c.428-.764.779-1.566 1.072-2.339a.47.47 0 0 1 .061-.251c-.021-.006-.049 0-.072-.002.141-.369.268-.733.385-1.08.074-.044.137-.096.196-.154.058.028.11.061.13.091.006.009.008.019.013.027.264-.35.4-.806.763-1.075a.732.732 0 0 1-.105-.195c.081-.081.203-.132.322-.18.047.274.066.578.068.904-.094.312-.146.633-.014 1.039-.002.041-.002.082-.002.125-.011.008-.021.019-.035.023.008.032.026.061.033.088-.002.119 0 .23 0 .343-.088.007-.17.021-.17.116.065.055.119.111.164.168-.087.006-.164.021-.164.114.17.139.248.288.291.456.004.008.006.021.01.026.006.036.027.068.031.101-.062.556-.397 1.215-.329 1.931-.006.201.006.406.068.615a.593.593 0 0 1 .063.185c.008.021.021.039.029.061-.207.245-.391.531-.328.872-.045.212-.003.446.199.713-.197.165-.238.503-.217.826a2.44 2.44 0 0 0 .133.917c.1.135.311.117.471.16-.094.127-.111.297-.086.494-.074.436.246 1.108.3 1.653-.036.639-.284 1.131-.235 1.578a1.09 1.09 0 0 0 .001.365c0 .156.071.223.163.266a.388.388 0 0 1 .196-.199.258.258 0 0 1 .141.201c-.197.152-.302.373-.358.629-.014.021-.012.055-.012.086a2.87 2.87 0 0 0-.03.652c-.003.061-.009.123-.006.186.006 0 .013 0 .019-.006.002.033.008.068.012.098-.041.096-.084.172-.018.229 0-.033 0-.068-.004-.1.018 0 .027.008.037.014.025.217.053.436.089.66-.003-.004-.003-.01-.003-.012.003.094-.037.109-.102.055.051.295.041.658.176.865-.003-.02 0-.021 0-.035.023.191.057.389.062.564 0 .027-.009.043-.009.068-.015-.012-.021-.016-.038-.033 0 .055.008.098.021.141a2.739 2.739 0 0 1-.028.188 1.401 1.401 0 0 1-.006-.84c-.2.031-.009.373-.194.467.062.004.123.012.106.1-.056.006-.081-.072-.103.002.259.299-.078.811-.027.871-.006-.043.009-.068.021-.094a.892.892 0 0 0 .154.117c.039.275.08.547.189.742-.162.23-.413.388-.446.736.008.053.033.082.066.098l-.008.016c.018-.008.043 0 .062-.002.014.002.023.008.037.008.018 0 .043-.004.062-.006.049.016.094.045.115.094a.27.27 0 0 1 .148-.123c.068.008.115.031.115.117-.01.029-.035.051-.053.076-.068.027-.156.031-.194-.01a.209.209 0 0 1-.009.094c-.004.016-.021.016-.031.021.049-.006.092-.012.134-.016a.351.351 0 0 1-.253.037v-.012c.01 0 .018.004.031.004-.013-.004-.021-.004-.031-.008-.029-.252-.053-.354-.051-.012a.36.36 0 0 0-.064-.018.28.28 0 0 1-.068-.098c-.002.008-.005.012-.006.021.012.082.069.1.139.109 0 .09.001.203.006.359-.02.115-.008.291.007.473-.05.061-.104.117-.151.176-.018.127.023.168.081.186l-.081.096c-.018.117.018.158.068.176-.116.479.061.576-.068 1.053.336 1.529.322 2.951.266 4.146-.033.629.061 1.254.205 1.889.087.021.129-.08.152-.002-.006.084-.166.27-.043.311-.025-.223.184-.143.306-.111.101-.121.361-.367.144-.363a.26.26 0 0 0 .039-.068c.038.049.057.098.106.148.006-.006.009-.016.015-.023.08-.082.183-.066.276-.018l.085.053a.807.807 0 0 1 .144.164c.003.012.012.021.009.029 0-.006.003-.002.006-.006.051.084.068.164.025.205.181.107.339.16.49.189-.029.295-.086.592-.083.627.028-.045.101-.295.149-.158-.047.076-.09.412-.039.412.009-.158.191-.152.25-.262.055.227.129.072.309.043.002.133-.02.301.109.303-.043-.469.287-.275.499-.475.042.166.057.361.218.406-.006-.217-.158-.498.032-.619.097.197.257.33.373.504-.006-.156-.038-.336.146-.312.103.402.448-.051.562-.115.087.191.044.098.208.043.061.164.299.141.316.35.159.033.148-.092.309-.061.109-.109.057-.379.19-.467.082.273.12.727-.077.875.197-.111.23-.121.311.094.074-.145.171-.27.297-.367.037.137.03.32.111.408.156-.205.197-.514.444-.625.038.188-.052.51.07.613.05-.205.156-.246.255-.059.027-.348.308-.207.346-.475.062.102-.035.26.162.305.145-.145.255-.322.344-.521-.033.193.07.24.062.412.064.037.087-.389.192-.471.091 0 .16-.018.204-.057-.015-.096-.142-.336-.012-.41.107.43-.179.924.239 1.172-.225-.777.246-1.166.055-1.746.312.191.086.643.23.969.305-.16.289.467.529.549.071-.361.5-.389.91-.434.195-.207.098-.416.083-.773.11-.074.206-.166.298-.262-.018-.201-.273-.551-.07-.664-.188-.297-.159-.664-.081-1.127.044.354.119.447.125.768.194.014.065-.271.196-.316-.068.322.037 1.404.502 1.424-.35-.264-.015-1.118-.162-1.573zm-2.923-24.583c.002.153.007.306.013.461.271.224.06.776.237 1.175.145.049.219.052.199-.159-.171.217-.037-.074-.058-.255.152.086.185.299.17.561-.517.03-.597-.223-.486-.909-.068.015-.038.128-.044.206-.107.038-.041-.554-.072-.771.003-.087-.041-.462.041-.309zm.463 11.372c-.107-.135-.11-.705.141-.516-.153.071-.049.386-.141.516zm.066-1.287c-.117.223-.096.424.068.564-.166.068-.045-.164-.209-.096.041-.163-.033-.433.141-.468zm-.135-1.275c.066.049.143.533-.039.512-.046-.225.061-.311.039-.512zm.187 5.07c-.13-.357-.133.006.005.154-.186.117-.072.25-.036.617-.284-.461-.163-1.32-.151-1.842.044.178.172.512.068.666.121-.042.119.183.114.405zm-1.206-8.582c.211.092.055.477.064.562-.119-.083-.026-.389-.064-.562zm.049-.055c-.211-.359.203-.4 0 0zm.338 4.815c-.154-.049-.089.115-.097.207-.145-.125-.005-.693-.128-.971.123.125.34.508.115.51-.035.156.141.094.11.254zm-.028-1.025c-.082.104.006.064.004.205l-.154.004c-.004-.088-.004-.17-.008-.256.044.025.088.052.158.047zm-.025-4.718c-.051.099-.113-.229-.113-.356.141 0 .101-.088.205-.006-.13.128-.179.065-.092.362zM8.795 3.089c.045.01.061-.01.074-.032l-.002.019-.169.301c.032-.099.059-.19.097-.288zm-.436 26.295v.006-.006zm.454.621a.54.54 0 0 1 .02-.123c.003.014.011.018.013.027-.002.04-.024.063-.033.096zm-.229 1.621a.378.378 0 0 0-.006.062.424.424 0 0 1-.113.002c-.006-.088-.016-.164-.021-.236a.72.72 0 0 1 .14.172zm-.112.137a.663.663 0 0 1 .133.184c-.024.055-.065.107-.107.162-.01-.109-.016-.229-.026-.346zm-.076 1.129c.02-.012.029-.012.047-.023-.004.1-.023.166-.066.176-.012.004-.008-.074-.006-.156.01.001.018.001.025.003zm8.85-7.418c-.088.221-.015.396.02.666-.102.004-.062.143-.203.105a2.25 2.25 0 0 1 .078-.924c.062.076.151.121.16.252-.049.001-.041-.062-.055-.099zm1.918 12.049c.184.064.012.498-.034.666-.185-.213.059-.443.034-.666zm-.025.975c-.001-.088-.006-.168-.006-.258.195-.016.02.041.057.154a.234.234 0 0 1 .152-.057l.003.156-.206.005zm.377.654c-.088-.076-.245-1.219-.066-.611.033.115.057.242.113.457-.06.009-.041.093-.047.154z"/><path d="M16.934 15.839c-.095.434.242.591.182.919.238-.244-.217-.806.025-.976-.168-.026-.067.188-.207.057zM17.812 27.404c.004-.158.144-.506-.064-.561.09.233-.058.385.064.561zM38.607 39.687c.027.006.012.029 0 .051.076.002.127-.023.152-.076-.045.011-.15-.03-.152.025zM31.875 34.275c.069-.094-.009-.221-.076-.258-.018.129.034.188.076.258zM31.849 33.326c.069.018.05-.053.075-.078-.033-.01-.049-.035-.103-.025a.154.154 0 0 0 .028.103zM32.002 32.378c.014-.098-.153-.02-.153-.104a.128.128 0 0 1-.027.078c.084-.011.092.046.18.026zM32.645 30.072c-.011.043-.035-.008-.076 0 .004.047-.031.055-.027.1.033-.018.17-.065.103-.1zM32.824 32.863c-.033.062-.018.172-.103.182.069.008.097.107.153.051-.012-.107 0-.193.077-.207-.044-.129-.246.02-.23-.129-.087-.031-.106.131-.053.154.004-.063.088-.051.156-.051zM32.9 33.326c0-.078-.025-.131-.076-.154-.027.066-.021.146.076.154zM32.9 33.582v-.205c-.097-.012-.097.218 0 .205zM32.977 34.042c-.054-.055.029-.168-.052-.229-.014.044-.058.3.052.229zM33.207 32.761c.037-.092.041-.154-.051-.229-.004.098 0 .184.051.229zM33.389 30.378c.021-.117.115-.156.152-.258-.102-.076-.156.076-.204.129-.07.018.019-.119-.052-.102-.043.116-.006.202.104.231zM33.77 31.736c.018-.078.018-.049 0-.129-.068-.018-.047.053-.076.078.037.006.044.041.076.051zM34.053 33.531c-.024.043-.098.17-.024.23.011-.06.088-.179.024-.23zM34.283 31.148c-.003-.076.022-.176-.051-.184-.002.084 0 .157.051.184zM34.361 30.916c.016.062-.033.188.026.205-.01-.102.06-.157-.026-.205zM34.516 30.892c.039.107-.025.244.051.307-.02-.09.104-.031.078-.129-.113-.004.012-.141 0-.205-.072-.014-.135-.037-.207-.053 0 .037-.012.057-.025.08.05.039.03-.004.103 0zM34.54 33.658c.048-.047-.015-.045 0-.127-.065-.006-.108.012-.103.076.071-.018.051.051.103.051zM34.67 31.968c-.017-.072.03-.205-.025-.232 0 .109-.051.166.025.232zM34.85 33.761c-.018-.158-.032-.123.051-.18-.008-.049-.008-.109-.077-.102.012.111-.073.133-.076.232.068-.018.049.05.102.05zM34.85 30.404c-.038-.031-.035-.104-.104-.104.013.039-.031.135.027.131-.005-.142.045.078.077-.027zM35.158 32.505c-.016-.053.031-.168-.027-.18-.006.037-.041.045-.051.078.07-.011.023.097.078.102zM35.08 30.992v.18c.13.001.041-.188 0-.18zM35.208 32.941c-.029-.072-.029-.105 0-.18-.093-.021-.064.194 0 .18zM35.566 30.736c.023-.146.057-.309-.025-.438-.092.164-.084.16-.127.311l.152.127zM35.746 34.169c.061-.045.059-.154 0-.205-.004.033.004.074-.027.078.053-.141-.092-.32-.125-.207.142.018.032.248.152.334zM35.746 33.736c.021-.125-.061-.146-.129-.178.009.092.113.092.129.178zM34.283 32.121c-.09-.012-.041-.148-.023-.207.084.064.074.119.023.207zM31.311 30.072c.072.002.047.105.053.178-.097.019-.035-.12-.053-.178zM31.67 30.148c.047.023.035.338 0 .283-.05-.064-.024-.215 0-.283zM31.799 30.453c-.041-.055-.039-.25-.027-.281.105.006-.039.139.077.156.028-.078 0-.164 0-.283.043 0 .065-.02.075-.053.002.041.076.162.181.104.021.107.103.154.129.256-.048-.094-.28-.066-.206-.207-.062-.002-.078.043-.102.078-.002.045.031.057.025.102.02-.018.07-.039.076 0-.045.11-.22-.085-.228.128z"/><path d="M32.002 30.404c.007.123-.045.195-.025.332-.071-.045-.144-.352.025-.332zM32.055 30.044c0-.096.133-.096.102.027-.047.003-.054-.034-.102-.027zM32.156 33.07c-.008-.07.035-.086.104-.078v.104c-.055.011-.069-.018-.104-.026zM32.184 30.044c.027-.082 0-.061 0-.156a.113.113 0 0 0 .076.027c-.024.047 0 .137-.076.129zM32.336 33.119c-.055-.002-.01-.107-.025-.152.029.004.021.047.025.078.07-.029.199-.051.18.074-.011-.059-.172-.082-.18 0z"/><path d="M32.336 32.941c-.003-.129.131.037.127-.078.045.027.057.08.051.154-.023 0-.021-.033-.026-.051-.064.069-.076-.031-.152-.025zM32.438 33.427v-.125c.087-.029.04.076.052.125h-.052zM32.619 32.097c.047-.07.169.127.026.125-.014-.035.03-.131-.026-.125zM33.541 32.121h.1a.315.315 0 0 0 .027.258c-.089.062-.089-.186-.127-.258zM33.668 30.378c-.057-.02-.008-.145-.027-.207.149.006.035.135.027.207zM33.797 32.4c-.065.01-.086-.031-.076-.098.061.133.112.006.205-.029 0 .086-.106.068-.129.127zM33.721 32.097v-.08c.136.01.125-.025.104-.127.113.029.037.137.074.207-.034.035-.144.035-.178 0zM33.746 30.277c.012-.025.027-.043.023-.078.084.004.113.057.104.156-.115.043-.033-.105-.127-.078zM33.77 32.683c.011-.133.23-.062.207-.227.023.008.044.021.05.049.042.004.042-.158 0-.152.116-.031.069.287.078.357-.026-.059-.099-.074-.128-.129-.043.033-.039.113-.078.152h-.102c.005-.026-.006-.044-.027-.05zM34.08 30.148c.016.092-.077.076-.077.152-.117-.043.032-.117.077-.152zM34.105 30.378v-.156c.022.021.059.029.104.027.006.084-.033.124-.104.129zM34.233 32.455c.038.023.056.064.052.127-.076.005-.092-.092-.052-.127zM34.26 30.171c-.006.025.009.027.023.027.041-.092.122-.049.104-.23.018.018.067.039.075 0 .071.012.002.082-.051.051.104.045.051.102.025.205-.05-.051-.135-.025-.102.076-.045-.002-.056.033-.103.027-.012-.09.009-.145.026-.203.034.006.026.047.003.047zM31.822 33.992c-.039-.287.064-.496-.076-.641-.044.217.031.441.076.641zM32.694 30.892c-.028-.023-.069-.033-.126-.027-.084.125.061.312.152.254-.092-.027-.128-.111-.152-.203.039-.071.104.042.126-.024zM33.746 32.966c0 .047-.021.055-.053.025-.02.078.044.074.026.154.093-.016.122.031.179.051.012-.062-.045-.055-.024-.127-.072-.021-.065.035-.128.025-.035-.063.074-.106 0-.128zM34.975 32.326c-.053-.023-.009-.146-.074-.156-.029.091.04.214.074.156zM35.08 32.941c-.049-.029-.02-.137-.13-.102.011.045-.037.066 0 .078.013-.076.112.106.13.024zM34.975 30.097c.064.07.173.154.128.258.111-.152-.006-.242-.128-.258zM35.31 33.787c-.061-.256-.004-.473-.156-.641.004.09.084.238.027.309-.021-.053-.016-.168-.078-.102.066.047.137.309.207.434zM35.337 30.583c-.021-.09.035-.098.023-.18-.064-.053-.055-.035-.152-.025.029.08.037.199.049.23.004-.03.039-.026.08-.025zM35.437 33.787c.014-.072.018-.227-.051-.229.045.068.027.26-.049.129-.015.076.065.07.1.1z"/><g><path d="M49.046 21.472a.22.22 0 0 0-.008-.1.554.554 0 0 0-.035-.088l-.01-.018c-.018-.031-.029-.061-.045-.088h-.004a.913.913 0 0 1-.068-.146c-.029-.056-.029-.083 0-.083-.082-.027-.139-.027-.221-.086-.189.104-.479.578-.842 1.086a6.997 6.997 0 0 1-.699.84c-.354.359-.752.631-1.182.631-.037-.1-.078-.188-.115-.285h-.004a12.762 12.762 0 0 0-.139-.35v-.004c-.004-.012-.014-.018-.016-.029a6.715 6.715 0 0 0-.412-.797c-.006-.01-.008-.021-.014-.031l-.008-.002a5.332 5.332 0 0 0-.238-.383v-.006a5.308 5.308 0 0 0-.414-.501.009.009 0 0 1-.006-.002.177.177 0 0 1-.025-.032c-.098-.027-.203-.061-.305-.094-.115-.035-.232-.074-.354-.111v.002a18.723 18.723 0 0 0-1.123-.323v-.002l-.041-.009c-.43-.104-.855-.192-1.24-.192-.057 0-.109.008-.162.008a2.687 2.687 0 0 0-1.83.795.652.652 0 0 0-.104-.125h-.002a.304.304 0 0 0-.199-.085l-.006-.001c-.359.752-1.916 4.141-2.361 4.922-.314.535-.533 1.096-.734 1.656a.5.5 0 0 0-.211.078.582.582 0 0 0 .152.07c-.475 1.318.07.111-.635 1.629-.023-.033-.381-.033-.051-.143-.041-.885-.248-1.766-.474-2.643.009-.029.015-.055-.014-.057a38.162 38.162 0 0 1-.379-1.535c.111-.049-.061-.211.123-.234.019.078-.043.076-.027.154.046.002.188.105.181 0-.044-.035-.129.021-.103-.127.059-.037.097.064.103 0-.044-.012.005-.033 0-.08-.077-.02-.032.092-.129.053-.043-.197-.137-.428-.153-.615-.042.035-.083.078-.131.107-.01-.068-.021-.139-.03-.209 0-.008 0-.021-.003-.029l-.014-.094.024-.008c-.031-.018.022-.162.103-.152.006.041-.026.125.051.1-.025-.107-.016-.1.051-.156-.047-.092-.116.02-.153-.027.058-.092.108-.055.153-.176.138.102.237.375.258.512-.086.031-.07-.164-.103-.104.029.086-.04.064-.053.104.053.043.19.135.155.178-.082.006-.086-.068-.18-.049-.004.082 0 .156.051.18.023-.168.115.031.205-.051-.018-.148.055-.145.026-.336.084-.035.143-.092.231-.129-.076-.064-.16.014-.257 0 .057-.055-.135-.197 0-.256-.196-.02-.032-.156-.053-.281-.141-.016-.029-.146-.076-.229-.073.029-.07.115-.18.049.055.178.174.26.076.461-.152-.025.039-.18-.102-.102.019-.146-.033-.225-.102-.281-.009.102-.057.164-.078.254-.056.006-.079-.021-.076-.074.098-.016.062-.16.102-.23-.049.02-.09-.01-.128-.045 0-.041-.003-.08-.003-.121l-.003-.24c.009-.006.021.004.032-.006-.023-.027-.023-.049-.032-.076l-.001-.186c.004-.018.004-.027.007-.045-.003-.002-.006-.002-.009-.006v-.154c.035.012.075.02.111.031.021-.115-.03-.16-.114-.172l-.001-.102.013.002c-.009-.076.062-.068.038-.156-.031-.006-.044-.021-.061-.033v-.025c.087.01.111-.044.15-.08.049.003.018.087.076.08-.006-.059.006-.098.053-.104.02.092.003.096.025.206.068.021.051-.049.102-.049.042.031.011.145.053.178.1-.018.186-.053.23-.129-.065-.006-.168-.104-.104-.154.102.052.201.111.257.205-.053.02-.107.146-.025.152-.02-.127.109.045.129-.047-.062-.008 0-.096.025-.102.105.045-.023.172.078.205-.084-.025-.039.084-.104.076-.008-.033-.037-.049-.025-.102-.131.031-.197.023-.256-.076-.032.061.058.125 0 .129-.12-.012-.161-.096-.258-.129-.077.113-.103.291.076.305.041-.092-.087-.014-.076-.078.085-.049.229-.092.333-.049.041.092-.086.016-.075.078.099-.006.008.02.024.076.144-.016.232.023.232.154-.107.014-.131-.059-.205-.076-.016.014-.062.121 0 .127.085-.076.281.076.382-.027v-.1c-.016-.045-.121.002-.127-.051.014-.039-.033-.135.025-.129.074-.006.076.057.154.051.035-.123-.148-.023-.129-.129.098.057.082-.041.129-.104-.031 0-.074.006-.078-.023a.834.834 0 0 0 .104-.102c0-.078-.066-.088-.076-.156-.109-.016-.08.107-.18.104v-.181c-.21-.029-.244-.304-.076-.382-.131-.038-.109.078-.18.099 0-.041-.07-.012-.076-.049.003-.213-.176-.542.076-.613-.029-.108 0-.177.103-.207.06.04.078.126.179.128-.189-.225-.033-.42.23-.464.008-.108-.115-.274-.025-.356-.049.006-.057-.029-.102-.025.023.238-.092.256-.104.436-.061-.035.012-.2-.074-.206.055.009.107.054.125-.025-.143-.028-.016-.284-.18-.23.049-.046.078-.192.154-.129-.014-.099.021-.149.051-.206-.102.006-.1.036-.229.053-.051-.095.039-.13.025-.258-.077.043-.08.232-.23.205-.02.08.07.049.053.129-.1.021-.117-.076-.104-.23.097.013.094-.078.127-.128-.036-.015-.131.03-.127-.026.097-.039.051-.021.025-.102.047 0 .08.006.103.026v-.077c.015 0 .032-.021 0-.027-.001.062-.085.006-.075-.025.038-.031.113-.022.102-.101-.006-.024-.039-.024-.069-.024.006-.02.012-.034.021-.055.026-.006.039-.027.076-.023-.031.093.028.24.179.228.016-.078-.031-.22.025-.257.029.004.029.041.027.079.047-.012.109-.009.1-.079-.148.021-.08-.157-.049-.229.088.045-.061.176.049.179-.012-.082.033-.125.08-.077-.047-.086-.006-.177.023-.256-.105.053-.188.073-.23-.078-.062 0-.092.032-.123.067.033-.103.064-.208.084-.311.018.082.02.173.09.243 0-.041.07-.015.076-.051-.072-.002-.094-.059-.127-.102.084-.047-.004-.154.078-.23.043.082.088 0 .129.076-.031-.146.014-.216 0-.281-.039.065-.064.146-.156.153.016-.07.107-.062.102-.153-.049-.008-.051.033-.078.05 0-.087.047-.11-.025-.154a.177.177 0 0 1-.053.138c.002-.045.012-.094.012-.135.014-.002.021-.003.033-.003.559 0 1.172.038 1.742.038h.045c.045 0 .086-.003.133-.003v-.006c.127 0 .252-.006.371-.012h.004c.109-.012.213-.027.316-.041.016-.003.033-.003.051-.006v-.004c.143-.02.275-.051.4-.088v.005c.053-.015.092-.044.139-.062.094-.041.189-.073.266-.123a.97.97 0 0 0 .314-.32.292.292 0 0 0-.18-.062s0-.002-.002-.002c-.035 0-.076.018-.115.026-.021.006-.043.009-.066.015a.667.667 0 0 1-.205.042.388.388 0 0 1-.172-.015c-.002-.004-.006-.004-.008-.004-.004-.002-.01-.002-.012-.006a1.63 1.63 0 0 0-.5-.277c-.031-.012-.062-.021-.094-.032a3.631 3.631 0 0 0-1.051-.138c-.32 0-.645.018-.973.033-.055-.123.061-.197.074-.248-.15-.217 0-.436-.1-.689.039-.065.123.099.158-.026-.021-.018-.146-.028-.191-.006.047-.263.242-.269.178-.501-.043.035-.051.012-.096-.004-.01-.103.053-.262-.049-.381.01-.075.117.006.123.035-.035-.189.09-.623-.094-.859.111-.003.031-.218.045-.346-.092.002-.062.131-.07.221a.27.27 0 0 0-.033-.041c.002-.139.008-.275.012-.41.035-.023-.021-.08.057-.094.006.066.043-.033.102 0-.006.066.008.111.076.104.062-.062-.049-.135-.037-.2l-.039-.03c-.041.012-.061.036-.076-.029.004-.006 0-.016.004-.023-.023-.017-.047-.033-.068-.051.01-.16.018-.319.037-.46.002-.032.008-.062.055-.054.037.144.021.34.109.434.086-.302-.127-.406-.109-.705.031-.555.766-1.093.652-1.629-.037-.172-.234-.369-.436-.433.498.492.1.942-.107 1.519-.141.385-.213.826-.252 1.293a3.993 3.993 0 0 1-.309-.225c-.008-.098 0-.2.061-.274-.15-.087-.041-.319-.078-.446.135-.022.025.181.15.162-.051-.221-.061-.48-.137-.604-.055.025-.055.113-.129.123.039-.125-.104-.197.014-.348-.201.016-.109-.05-.185-.135h-.02a1.479 1.479 0 0 0-.138-.539c.006-.001.011-.004.017-.004.021-.188-.082-.099-.121-.193l-.002.001a5.56 5.56 0 0 1-.229-.44c.097-.209.315-.298.271-.652-.202-.271-.534-.499-.489-.867-.255-.056.09.184-.107.219-.319-.269-1.184-.26-1.195-.652-.521-.146-.651.348-.923.273-.028.078.064.279-.054.27-.513-.1-.566.408-.791.557-.02-.014-.035-.027-.058-.038-.005.024-.002.048-.005.073a.224.224 0 0 1-.125.007.417.417 0 0 1 .062.349c-.041-.068.002-.223-.084-.247.037.144.043.265.043.38-.192-.034-.391-.084-.576-.109-.262.379-.185.896-.191 1.402a.132.132 0 0 1-.122-.038c.018.155.035.495.083.57-.033.277-.065.558-.105.841l-.031.229c-.018.016-.039.024-.054.04v.363l-.018.113c-.38.785-.427 2.109-.376 3.365-.007.149-.02.301-.023.451-.365.094-.746.164-1.143.219 0-.004-.003-.008-.003-.008-.944.134-1.952.171-2.979.177-.107.003-.216.003-.325.003-.559 0-1.115-.003-1.665-.003.278.333.64.584.946.888h.003v.004h.149c.291.016.578.025.853.025.203 0 .386-.014.581-.02.456-.006.904-.021 1.346-.043.21-.014.43-.014.645-.022.499-.021.998-.042 1.535-.025 0 .034-.003.069-.003.107 0 .149-.012.304-.03.458-.098.82-.364 1.691-.048 2.435-.418.28-.058 1.195-.194 1.667.01.07.057.084.109.084.037 0 .078-.008.111-.008a.953.953 0 0 1-.014.121c-.046-.002-.098-.018-.229-.016.096.258-.182.17-.179.34.405-.055.036.322.161.582-.217-.195-.215.123-.453.09.161.695-.086 1.279.099 1.832-.417.611.039 1.125-.161 1.846.129-.027.178.033.196.127a.504.504 0 0 0-.062.221.13.13 0 0 0-.117-.021c.031.221.125.369.102.65.042-.012.069-.039.096-.062 0 .033.014.066.003.098.075.115.05-.105.146-.092.002.123.006.246.012.363a.672.672 0 0 0-.026.334c.012 0 .024 0 .036-.002 0 .018 0 .031.002.047 0-.004 0-.01.004-.012v.008c-.016.068-.023.129-.045.211.006.012.006.029.012.041-.029-.035-.047-.076-.08-.109v.006s0-.006-.004-.006c.025.098.04.199.058.301.006.053.018.107.026.162.132 1.027-.015 2.094.612 3.01.19.273.538.523.946.73.092.125.208.291.314.447.219.238.43.48.652.717 0 .002.002.002.002.006 0-.01-.006-.021-.002-.029.127-.004.087.109.119.127.185-.041.214-.25.299-.398.031.064.01.119.055.223.097-.006.097-.119.195-.119.074.059-.006.232-.043.283-.013.074.145-.012.093.098.097-.006.048-.166.134-.184.148.045.06.215.049.35.054-.119.17-.113.256-.117a.22.22 0 0 1 .038-.158c.213-.006.382-.148.485-.332.118.023.156.119.279.137-.014.127-.107-.037-.096.094.049.004.119-.012.125.035.058-.002.022-.107.068-.125.098.021.077.152.183.164-.003-.18-.047-.322-.208-.354-.006-.246.173-.287.256-.439.047-.016.092-.037.135-.057.039.096.016.248.158.164-.027-.066-.093-.092-.09-.191.104-.035.022.105.125.068-.006-.059.006-.104.015-.152.165-.098.302-.207.431-.324.036.07.082.188.131.203.006-.086-.045-.111-.027-.209-.029.006-.053-.008-.073-.025.032-.031.063-.059.091-.092.004.004.004.012.01.012v-.023c.022-.021.049-.041.068-.066v.002c.076-.09.158-.178.222-.27.08-.109.15-.217.223-.324.02 0 .037 0 .062.01.061-.1.035-.289.229-.244.018-.078.004-.125-.01-.176.021-.031.043-.062.064-.096.031.018.055.037.115.027.102-.121.129-.264.143-.42.01-.016.023-.035.031-.053.004 0 .006-.004.01-.004.012-.021.021-.041.035-.062h.005c.189-.305.379-.613.547-.916.002 0 .002.002.002.006.086-.158.158-.314.238-.471-.002 0-.002-.002-.002-.002a16.7 16.7 0 0 0 .539-1.158c0 .002 0 .002.002.002l.045-.102h-.006c.066-.164.145-.328.205-.492.053-.152.121-.332.195-.52h.004c.115-.287.254-.617.406-.973l-.014.018c.043-.098.084-.199.129-.299v.014l.477-1.105c.113.857.266 1.648.561 2.305-.055.018-.109.035-.164.057.059.098.152.121.254.131.045.086.096.162.148.242-.002.006-.012.008-.014.016.012-.01.014 0 .023-.004.107.168.23.32.373.461-.01.006-.016.016-.025.023h.049c.295.287.664.508 1.143.646h.008c.121.033.23.076.369.102.291.051.455.082.539.104.008 0 .012.004.021.006.287.074-.664-.051.719.164.023 0 .158-.002.352-.045v.004c.035-.01.084-.027.123-.037.072-.018.143-.035.225-.064.055-.02.113-.049.17-.072.092-.039.182-.086.277-.143.059-.033.113-.072.172-.111.105-.072.207-.16.311-.26.051-.047.098-.088.146-.146.123-.137.238-.301.346-.486.018-.031.039-.047.059-.082 0 0-.006.004-.006.006.041-.08.074-.178.111-.27 0 .004.004.006.004.006.068-.154.137-.307.188-.492.053-.191.305-.305.361-.414.006-.018.004-.057.004-.088v-.027c0-.021.002-.031 0-.049 0-.004 0-.004-.004-.01-.008-.135-.021-.305-.006-.412.043-.256.107-.521.18-.787 0-.004.002-.004.004-.004.057-.219.117-.439.18-.658l-.004-.008c.076-.264.141-.51.195-.752h.006c.029-.137.064-.279.084-.402 1.443 0 2.418-1.449 2.891-2.641.002.002-.008-.013-.004-.024zm-20.097 5.74c-.021.008-.056.018-.087.027-.077-.088.028-.248.006-.402.122.016.073.227.081.375zm.315 3.268c-.002-.027-.005-.053-.005-.078l.032.084c-.01 0-.02-.006-.027-.006zm.911-19.491c-.006-.007-.003-.01-.012-.016l.012.002v.014zm5.28 2.646c0 .018 0 .034-.002.052a.301.301 0 0 1-.092-.154c.014-.018.025-.039.049-.047.015.046-.024.152.045.149zm.015 2.497c-.006.009-.016.009-.021.013.006-.007.01-.017.014-.024.001.001.005.011.007.011zm-1.021 8.625c.006-.004.006-.016.014-.02-.008.01-.004.029-.008.037-.002-.005-.002-.011-.006-.017zm1.111-8.494c-.025.022-.068.18-.01.212l-.232.008c.021-.034.031-.069.068-.101.002.041-.002.093.051.078-.012-.047-.021-.232-.051-.178.006.057-.006.094-.049.1-.008-.08.043-.105.025-.203.018.016.031 0 .045-.006-.006.012-.012.033-.004.084.046-.084.079-.034.157.006zm-.08-3.172c-.01.162-.018.328-.023.496-.008-.072-.035-.182-.096-.154.029-.174.041-.259.119-.342zm-.248-.324c.047.009.059.045.053.104.047-.006.016-.088.053-.104.082.196-.092.346-.053.514a.155.155 0 0 1-.115-.09c0-.1-.049-.233.094-.163-.01-.067-.029-.145-.047-.226.005-.012.009-.027.015-.035zm-.074-.344c.012.081-.045.09-.09.113-.006-.006-.012-.014-.018-.018-.016-.021-.031-.042-.052-.064.052.01.105.01.16-.031zm-.117-.287c0-.055-.093-.236.043-.223.049.161-.01.287.012.507-.064-.003-.094-.032-.153-.032-.012-.016-.022-.033-.036-.047.004-.071.01-.145-.024-.18.048-.016.161.043.158-.025zm8.181 9.621a.397.397 0 0 1 .189-.16.364.364 0 0 1 .131-.017.44.44 0 0 1 .172.073c.033.02.062.041.096.068.064.057.133.125.195.207.018.021.031.041.047.064.156.223.301.5.404.766-.496-.195-.914-.502-1.328-.861.028-.064.063-.099.094-.14zm1.629 3.659a5.554 5.554 0 0 1-.082.586c-.018.104-.043.195-.068.293a4.66 4.66 0 0 1-.18.58c-.02 0-.041 0-.072.021.008.037.025.051.043.057-.01.021-.018.043-.025.059-.004.004-.004.004-.006.004 0 .002 0 .006.002.008-.025.064-.057.109-.086.166-.062.006-.133.023-.188.018-.006.166-.359.166-.344.342-.018-.037-.01-.066-.004-.094-.143.018-.086.127-.227.146.02.105.139.006.178.059-.158.078.148.121.006.186a.464.464 0 0 0-.342-.004c-.021-.119-.094-.018-.217-.074a.262.262 0 0 1 .027-.104c.057.029.113-.043.115-.105-.215.045-.271.162-.221.332.061.01.061-.117.109-.043-.037.174-.219.117-.348.066-.057-.078.049-.084.039-.141-.084.051-.1.1-.1-.023-.043.033-.174.023-.156.086.086.031.143.064.113.143-.045-.078-.15-.029-.217-.072-.014-.055.088-.055.055-.113-.062.023-.129.043-.191.068-.002-.01-.012-.01-.014-.02-.043-.09-.09-.178-.125-.268 0-.004.002-.004.002-.006l-.002.002a8.555 8.555 0 0 1-.104-.307c.01-.002.014-.002.025-.006 0-.051-.02-.088-.055-.105-.035-.125-.078-.254-.104-.379 0 0 0-.002.002-.002-.002-.006-.002-.012-.006-.021-.002 0-.002-.004-.002 0a5.33 5.33 0 0 1-.094-.691c.002 0 .002 0 .004-.004a6.195 6.195 0 0 1 .211-2.047l-.004-.002c.035-.135.07-.27.113-.393.002.002.004 0 .004.002.045-.135.098-.258.146-.377h-.006c.096-.229.197-.443.299-.617.521.371.982.832 1.582 1.102.162.076.336.141.529.176.014.131.004.244.008.367.012.254.023.504.012.732.001.145-.022.276-.034.417z"/><path d="M28.635 18.981c.008.199.081.328.218.379-.041-.16-.018-.392-.218-.379zM28.477 16.034l-.008-.195c-.159.036-.15-.11-.334-.045-.006.123.082.138.082.258.178-.004.125-.117.26-.018zM28.092 18.616c.004.064.006.129.012.195a.31.31 0 0 1 .2.056c-.006-.088-.012-.175-.014-.263a4.294 4.294 0 0 0-.198.012zM27.875 25.513c.084-.264-.056-.354-.094-.518-.105.128-.058.473.094.518zM44.13 26.792c.059.029.172-.016.117-.105-.04.037-.107.057-.117.105zM43.652 27.093c.059-.041.211-.039.207-.107-.067-.029-.207.031-.207.107zM39.373 28.728c.09.027.158.021.156-.086-.09.059-.168-.017-.156.086zM43.591 27.269c.018-.008.033-.018.018-.037-.051.037-.191.031-.182.098.111-.057.152.035.266-.035-.022-.137-.084.048-.102-.026zM43.494 27.767c.053-.012.049-.051.098-.066-.053-.104-.045-.076-.07-.189-.065.062.009.142-.028.255zM34.797 22.712c-.012-.088.01-.143.025-.205-.086.045-.069.051-.129-.023-.022.035-.02.098-.1.074-.025.078-.019.168.051.104-.034 0-.033-.07 0-.076.103.006.074.113.025.154.061.01.056-.047.128-.028zM34.746 24.507c.018-.059.033-.086 0-.156-.064-.002-.107.016-.129.051.09-.006.076.08.129.105zM34.9 25.533c-.022-.133-.002-.305-.104-.357.036.165-.049.3.104.357zM34.949 23.355c-.01-.092-.051-.111-.126-.08.006.041-.009.094.026.104.022-.075.04-.028.1-.024zM35.31 22.998c.033-.139-.199-.145-.129-.232.082-.006.053.1.129.104.104-.232-.213-.061-.156-.207-.092-.014-.062.092-.152.078-.036-.068-.033-.176-.129-.182-.049.129.085.068.076.154-.07 0-.05.043-.102 0-.003.064-.006.127.052.131.023-.037.038-.082.103-.078.033.113.029.223-.027.307.027.051.064.09.103.127.064-.002.1-.035.102-.098-.025-.053-.113-.041-.102-.131a.215.215 0 0 1 .102-.102.232.232 0 0 0 .13.129zM35.029 25.74c.057-.092-.054-.086 0-.156-.05-.004-.057.031-.103.027-.004-.031-.007-.061-.053-.051-.001.078.033.121.053.18h.103zM35.103 26.457c-.02.055-.064.088-.051.18.084.003.158-.149.051-.18zM35.208 19.816c.012-.058.061-.164-.027-.179-.039.043-.01.138.027.179zM35.257 21.608c-.006-.045.031-.056.027-.099h-.102c-.005.061.038.079.075.099zM35.386 18.946a.215.215 0 0 1-.104-.104c-.049.124-.104.378.027.515-.025-.088.012-.253 0-.41.04-.001.081.105.077-.001zM35.257 19.381c-.061.05.045.122-.025.179.105.033.105-.176.025-.179zM35.31 24.378c.002.064-.043.08-.053.129.061.008.098-.006.104-.053-.043.001-.012-.066-.051-.076zM35.41 27.353c.01-.043.078-.158.027-.18-.076.032-.092.121-.027.18zM35.41 19.175c.004.081-.029.122-.049.18.094.035.101-.151.049-.18zM35.437 18.996c0 .035-.039.05-.023.101.103-.075.041-.355.023-.101zM35.462 18.405c-.064.148-.021.375.025.413-.013-.13.034-.327-.025-.413zM35.08 24.611c-.051-.01-.051.033-.078.051-.023-.029-.033-.068-.027-.129-.059-.018-.113.01-.152-.078.004.164-.01.287-.025.488h.102c.006-.045-.026-.129.05-.104.023.074-.036.066-.023.129.077.033.104-.008.178.051-.016-.228-.031-.217-.025-.408z"/></g><g><path d="M69.175 15.255c-.154.119-.066.322.053.436-.006-.222-.006-.401-.053-.436zM69.228 15.036c.037-.335.055-.635-.053-.926-.05.213-.021.673.053.926zM69.33 34.433c-.057.244-.07.471.051.602-.034-.182.064-.504-.051-.602zM68.865 18.415c0 .533-.014 1.055.156 1.308 0-.492.033-1.019-.156-1.308z"/><path d="M69.228 20.648c.113-1.118.066-2.563 0-3.215.006.151.008.282-.104.163-.01.278.094.629-.102.818-.119-.111.062-.537-.154-.546-.1.449.523 1.007.205 1.198.166.352.037.727.102 1.256v.161c.006.067-.008.157.053.165zM69.33 21.466c-.002.204.039.645.1.6-.011-.225-.024-.446-.1-.6zM69.228 16.942c-.033-.241 0-.381-.053-.492-.133.208-.053.508.102.711.086.008.086-.337 0-.328-.01.041 0 .107-.049.109zM69.228 12.148c.002-.163.152-.483-.053-.546.108.224-.054.351.053.546zM68.919 16.508c-.084.238-.049 1.177.051.925.031-.201-.066-.543.051-.656-.08-.532-.084-1.206-.102-.269zM68.919 30.623c.004.125-.1.502.102.488.031-.002.061-.008.053-.055-.041-1.541.127-2.758-.053-4.414.104 1.219-.139 2.754-.102 3.981zM69.175 36.181c-.018-.148.148-.383 0-.49.067.201-.152.377 0 .49zM68.919 15.255c-.088.188.041.357 0 .652.086-.095.086-.56 0-.652zM69.431 22.335c-.02.08-.061.094 0 .164-.045.682.156.088 0-.164zM69.277 37.271c.107-.107.213-.5.154-.602 0 .221-.226.485-.154.602zM68.712 34.763c-.039.291.09.467 0 .652.213-.04.092-.58 0-.652zM68.712 36.617c.188.014.115-.529.055-.602-.1.32-.033.365-.055.602zM67.875 38.937c-.014.02-.033.029-.043.051.011.072.027.043.043-.051z"/><path d="M68.767 26.425h.152c-.104-.102-.082-.5 0-.709.139.248-.02.799.154.873-.039-.748-.057-1.361-.094-1.955.027.127.078-.723-.111-.445.188-.518.158-1.262.051-1.799.004.17-.025.303-.104.383-.053-1.203.117-2.399 0-3.596-.162.365.006.916-.152 1.418-.053-1.346.037-2.106 0-3.216-.031-.853-.055-1.716-.07-2.572a.313.313 0 0 0-.002-.131c-.016-.815-.025-1.629-.031-2.419.004.059-.025.139-.051.053.145-.135.055-.52.203-.653.018.946.18 1.737.207 2.671v.38c.113-.006.021-.231.049-.327-.064-1.275-.119-2.604-.201-3.935.227-.328.391-1.042.082-.974.098.046.086.197.086.344-.125.012-.16.104-.195.203a55.6 55.6 0 0 0-.23-2.61c-.031.199.066.54-.051.653-.008-.066.01-.156-.049-.164.004-.113.008-.23.008-.35.012.033.023.06.041.078-.014-.324-.031-.689.102-.764-.109-.133-.104-.314-.17-.434-.004-.056-.012-.112-.018-.17.012.018.018.042.035.061.037-.282-.119-1.089-.102-.82.016.113.016.215.016.305a10.047 10.047 0 0 0-.311-1.409c.125-.077.23-.145.189-.358-.039.012-.068.012-.096.012.076-.062.125-.137.096-.293a.362.362 0 0 1-.096.016c-.25 0-.217-.385-.305-.563-1.053-.851-2.855-1.05-4.203-1.698C62.265.841 61.117 0 59.47 0c-.092 0-.184.003-.279.009 0 .099-.098.149-.047.297-.65.15-.852.604-1.199.951.029.125.062.231.094.342-.027 0-.053.004-.076.004.025.103.051.199.082.298-2.455 4.228-2.357 8.79-8.096 13.5.045.062.096.104.143.159-.049.041-.094.082-.143.121.219.293.451.478.686.603.031-.015.053-.022.064-.026.436-.072.785.041 1.074.149.223-.054.443-.144.656-.26-.01-.131.182-.218.289-.176 1.037-.692 1.838-1.843 1.77-1.813.414-.492.76-.811 1.059-1.107-.039-.002-.066.002-.115-.004.094-.184 1.262-1.27 1.371-1.266.182-.201.346-.428.496-.712.104.569.127 1.224-.09 1.686.152.069.027-.146.129-.128.037.451-.01.842.041 1.202.205-.467-.006-.974.389-1.202-.059-.52-.098-.936-.191-1.307.045-.039.109-.059.197-.059.025-.043.025-.1.037-.15.006.17.018.338.027.508-.016.032-.012.062.004.092.066 1.395.17 2.76.232 4.129-.035.021-.088.027-.092.08.012.024.051.044.098.066.002.043.006.09.006.131-.104-.028-.186-.047-.232-.059.051-.479.053-.82-.045-1.154.029.367-.045.834.033 1.15-.01 0-.027-.006-.031-.006-.006.01.006.016.033.023.004.011.004.024.006.033l.004-.033c.047.016.131.032.232.049.031.75.047 1.507.023 2.274-.162.094-.266.19-.211.254.002-.038.088-.095.207-.154-.014.573.004 1.153-.088 1.579.006-.152.041-.339-.039-.409.027.144-.033.368.027.478-.01.037-.012.088-.027.121.107 1.702-.033 3.331-.129 4.897.086-.016.086.057.129.084.006-.078.029-.145.086-.17.061.285-.318.365-.17.602.051-.064.053-.176.129-.213.109.188-.021.418.129.426-.064-.957-.033-1.471.129-2.488.074.516-.211 1.686.043 1.373-.002.092.012.213-.041.199-.01-.029-.018-.047-.043-.057-.123.154-.072.344.043.467-.1.479.121 1.621-.219 1.537.117.031-.025.537.088.428-.006-.107-.01-.209.088-.213-.051.859.156 1.635.041 2.744-.025-.104-.102-.154-.172-.213.295.709.119 1.559.301 2.445.016-.537.061-1.012.086-1.588.02.658.18 2.006-.043 2.318-.02.178.117-.037.131.129.018.111-.197.201-.088.26.037 1.006.1 2.428.129 3.434.107-.125.045-.074 0-.217a.22.22 0 0 1 .129.043c-.041-.156-.096-.113-.041-.301.088.088.113.012.17-.041-.004.027.002.055.002.082-.043.076-.041.205-.006.242.027.004.029-.008.041-.014l.016.064c-.004.037-.008.076-.016.117-.047.002-.105.096-.037.107.008.006.014.029.023.039-.047.369-.109.734-.08 1.029.049-.201.105-.439.143-.691.029.184-.125.355 0 .48.062-.139.031-.541.006-.512.006-.039.01-.078.012-.115.051.223.08.549.111.799.057-.131.006-.367.086-.473.057 0 .039.076.086.086-.037-.213.168-.025.041-.213a.2.2 0 0 1 .121.158l.004.057c-.1-.002-.174.023-.209.086.008.07.082.053.084.215.201.051-.072-.182.088-.215.016.023.031.033.047.037.027.217.072.408.117.604-.051.021-.012.129-.121.088.209.482-.088 1.637.129 1.76-.041.178-.131.037-.172.215.246.047-.088.061-.041.17.131.111.119.086.217.086v.129c-.061.004-.096-.02-.131-.041.029.312-.086.771.131.902.064-.035.064-.496 0-.389-.029.092.066.301-.09.258.029-.213-.057-.543.045-.686.121-.02-.033.234.084.215.068-.855.08-1.615.119-2.348.045.041.074.096.115.139.01-.035 0-.088.045-.092-.031.283-.01.52.014.752-.012-.113-.066-.234-.033-.381-.209.092.055.449 0 .557a.236.236 0 0 0 .039-.117c.002.014.002.031.006.049-.006.008-.006.025-.012.031.006.002.008.002.012.006.027.252.039.504-.025.795 0-.074-.002-.164-.008-.26-.002-.004-.002-.006-.002-.012-.014-.264-.047-.561-.123-.664-.004.42.002.832.178 1.068-.096.211-.07.369-.09.713.051.006.127-.012.135.043-.008.053-.082.1 0 .133.186-.377.197-.926.24-1.447a.676.676 0 0 0 .076.178c.006-.117.01-.209.01-.285.07.285-.043.602.025.818-.01-.053-.016-.107-.035-.15-.002.068.006.15-.084.131.021.348.121.496.043.814-.004-.053-.016-.104-.086-.088.051.162.074.461.086.432.102-.324.143-.789.082-1.115.232-.029.105.684.264.754.27-.129-.066-.619.18-.797.008.006.012.025.018.037-.006.248-.004.486.061.689.006-.225.014-.424.02-.607.016 0 .014.02.035.014.01-.039.016-.08.027-.119a.124.124 0 0 0 .088.07c.004-.051-.004-.09-.008-.135a.512.512 0 0 0 .117.201c.01.076.004.156.02.234.01-.07.01-.133.016-.201.133.119.301.188.41.125.043.223-.096.189-.135.223.09-.018-.1.277.045.311-.014-.098.008-.166.09-.176a.6.6 0 0 1 0 .445c.074.094.047.723.088.223.107-.139-.139-.641.09-.754.102-.018.049.125.131.131.006-.086-.049-.217-.047-.32.002-.016.004-.029.004-.043a.172.172 0 0 1 .043-.082c.055.285.139.645.092.934.088-.031-.012-.248.088-.266.014.033.004.09.045.09-.006-.188.023-.107.09-.043-.031-.119.092-.09.135-.135a.292.292 0 0 1 .08-.336c.012.156-.074.332-.004.379.049-.031.062-.293.039-.408a.295.295 0 0 1 .084-.029c-.018.172-.029.312.055.391.029-.045.039-.094.053-.143 0 .051.006.092.047.098.027-.076-.047-.25.039-.266a.836.836 0 0 0 .039.357c.004.014.004.031.01.039 0-.002.006-.002.01-.006.01.016.01.043.021.053.049-.152.016.121.135.043.006-.031.033-.047.047-.07.006.111.029.221.053.248.07-.084.01-.213 0-.332.062-.055.139-.111.211-.203-.096.008-.141-.033-.133-.131.047-.043.014-.164.133-.135.006.168.049.391.09.488.066-.082.002-.293.09-.354.006.182.029.008.09 0 .035.199-.178.381-.09.488.01-.051.07-.051.135-.043.088-.047-.096-.32.041-.402.047.041.092.088.135.133-.021.102-.137.334-.045.4.133-.201.129-.279.254-.424.008.041.018.082.039.088-.012-.037-.006-.082-.006-.119.021-.025.037-.047.07-.076.094.148.191.033.4 0-.008.109-.01.217.09.223.008-.125-.039-.305.088-.311.371.016.021.301.09.398.088-.076.135-.191.266-.223-.014.088.061.09.09.135.047.125-.072.305 0 .311.039-.066.145-.066.223-.09-.037-.543.238-.773.535-.977.539.189.1 1.033.135 1.375.125-.334.24-.674.311-1.066-.004.158.256-.031.223-.043.021.006.027.023.029.037.008-.014.004-.014.016-.037.062-.131.32-.162.268-.088.195-.281.111-.842.443-1.115.008.363.029.715.135.98-.016-.359-.094-.885-.045-1.154.074.176.076.428.223.531-.051-.316-.172-.646-.227-.988h.006c.305-.043.418-.176.463-.326.023.055.057.109.084.162-.006.057-.014.105-.02.143a.405.405 0 0 1 .064-.074c.061.111.119.221.207.33a4.389 4.389 0 0 1-.164-.607c.006 0 .004-.006.016-.006.068 0 .049.092.102.107.023-.227.043-.506.068-.805.01.002.012 0 .025.002.064-.066.023-.16-.006-.25.002-.012.002-.021.006-.029.041-.045.037-.1.023-.158.031-.027.082-.051.174-.061-.051-.086-.098-.158-.15-.238a.353.353 0 0 1 .15-.041c-.105-.17-.137-.131-.145-.059.047-.451.113-.873.215-1.139.029.078-.061.283.051.271 0-.447-.289-.576-.102-.98-.033.148.043.455.102.328-.139-.281-.062-.561-.051-.711.07-1.1-.016-2.408.102-3.65.043.67-.066 1.477.051 1.908.008-.084-.02-.203.049-.219-.115.576.064.705.053 1.469-.119.018-.055-.156-.156-.16-.027.34.184.178.256.326-.049-.799-.047-1.305-.152-1.852.074-.023.086-.066.152 0-.213-1.021.072-2.51.053-3.273-.012.043 0 .109-.053.109.035-1.183.109-2.215-.069-3.045zm-6.045 14.217a.074.074 0 0 1 .061-.027v.049c-.024-.004-.041-.014-.061-.022zm-.043-.117c.023.021.027.072.035.117-.018-.01-.033-.02-.053-.027.006-.03.005-.063.018-.09zm-4.865-30.321c.029.105.049.211.072.318-.012-.018-.031-.029-.043-.045-.01-.091-.021-.181-.029-.273zm.166-.203l-.002-.033a1.07 1.07 0 0 1 .045-.027c-.016.021-.022.043-.043.06zm-.082.173c-.012-.026-.018-.059-.027-.087.012-.023.016-.051.033-.072 0 .057 0 .114-.006.159zm-.055.396c.023.021.039.044.061.065.006.042.018.084.02.125a.122.122 0 0 0-.08-.032c.003-.05.003-.104-.001-.158zm-.435.266c.035-.091.076-.182.113-.286h.006c-.014.104-.02.373-.018.572-.029-.096-.056-.193-.101-.286zm.435.14c.031.049.037.104.061.154-.006.025 0 .049-.006.074 0-.068-.035-.1-.082-.117.006-.039.027-.073.027-.111zm.44 6.88a.949.949 0 0 1 .039.42c-.023.01-.039.021-.057.03-.015-.11-.019-.336.018-.45zm-.088 3.306c-.006.128-.07.257-.043.472-.123.026.07-1.227.043-.472zm.088-1.331c-.051.008-.037.08-.043.128-.119-.417.01-.687.043-.128zm.943 17.43h-.088v-.299c.166-.039.057.2.088.299zm.127-.345c-.049.07-.045-.072-.043-.205.02-.045.027-.092.053-.129 0 0 0 .002.004.002.002.041.008.078.012.117-.016.06-.038.131-.026.215zm3.313 4.052c0-.014.002-.029 0-.041.01 0 .016-.004.025-.002.006-.096-.018-.223.027-.277.02.088.023.195.018.32h-.07zm.32-.242a.248.248 0 0 1 .15-.111c.008.059-.006.143.039.164l-.189-.053zM68.119 9.95l.018-.066c.014.158.016.326.021.488a.805.805 0 0 1-.039-.422zm-.176 28.374a4.705 4.705 0 0 1-.049-.424.193.193 0 0 1 .094-.031c-.02.152-.031.308-.045.455zm.064-24.436l-.008.016c.002-.047.002-.096.002-.146.021-.014.035-.029.035-.062.008.006.006.018.01.023-.011.055-.019.112-.039.169zm.055-.233c-.02-.015-.035-.037-.055-.057a7.1 7.1 0 0 0-.055-1.172v-.01a4.313 4.313 0 0 0-.041-.26c.016-.082.031-.16.049-.241a.179.179 0 0 0 .035-.096c-.006.002-.008-.006-.016-.006l.016-.077c-.006-.041-.023-.066-.037-.093.006-.024.012-.048.016-.071.006-.004.016.002.021-.011-.006-.005-.008-.017-.016-.022l.02-.088a.342.342 0 0 0-.059-.133c.029-.158.037-.301.033-.444.02-.059.033-.126.064-.164.006.106.023.202.086.257.057-.023.027-.126.045-.18.002.257 0 .521-.012.795.002-.071-.004-.135-.059-.146-.094.203-.062 1.07.104.816-.092.434-.041.911-.139 1.403zm.17 1.934a.43.43 0 0 1-.064-.268.174.174 0 0 0 .08.098c0 .06 0 .109.002.158a.047.047 0 0 1-.018.012zm.021-.399c-.012.031-.037.043-.082.037.014-.129.031-.28.035-.444.012.009.023.021.043.021.004-.003.006-.003.006-.006.006.113.004.254-.002.392zm.161-5.773c.006.003.004.014.006.014-.029-.113.088-.085.088-.17-.117.045-.066-.078-.133-.086-.006-.045-.01-.092-.02-.135-.117.16.074.334-.102.382.002-.024 0-.045.002-.067.043-.243.072-.5.1-.754a.581.581 0 0 0 .102.332c.008-.119.006-.221.006-.311.01-.109.012-.178.01-.227a.582.582 0 0 1 .088-.281c.055 1.054.092 2.411-.102 3.379.037-.508.066-1.328-.045-2.076zm.146 18.7c-.115-.078-.021-.379-.051-.543.117.072.02.375.051.543z"/><path d="M68.712 16.016v-.435c.09-.021-.01-.07 0-.162-.031-.311.07-.765-.049-.982-.035.328.066.797-.053 1.036.097.083-.001.649.102.543zM66.412 41.769c.102-.082.18-.414.09-.535-.092.146-.19.447-.09.535zM67.523 39.101c.129.051.262.094.354.176.033-.133-.045-.16-.043-.266-.139-.004-.247.022-.311.09zM66.531 40.83c-.045.109.01.052 0 0zM59.001 40.703c.029.117.02.277.09.354-.025-.174.184-.348.045-.486.008.095-.037.137-.135.132zM59.269 39.232v-.002c0 .018.006.033.041.047-.025-.113.18-.219.043-.299 0 .055-.068.041-.084.084.029-.162.1-.324-.002-.449.051.213-.125.619.002.619zm0-.033c-.002-.043-.006-.088 0-.133.152-.012.033.062 0 .133zM69.105 8.836c.258-.13-.018-.517 0 0zM57.9 14.721c.127.012.164-.165.041-.171-.008.033-.002.084-.041.086.01-.074-.18-.229-.086-.127-.029.129.119.08.086.212zM57.599 13.694c.049.096.049.236.172.256.09-.1-.096-.187-.172-.256zM57.599 19.198c-.092.078.01.35-.084.428.08-.012.096.045.17.039-.141-.174.082-.267-.086-.467zM57.261 14.89v.127c.266-.027.389-.027.512-.127-.275-.073-.398.013-.512 0zM57.898 34.169c-.129.135-.055.451 0 .643-.055-.24.084-.51 0-.643zM61.974 41.728c-.053.154-.055.285.043.426-.029-.131.055-.371-.043-.426zM57.509 17.601c.039.475.078.951.215 1.33-.051-.466-.101-.93-.215-1.33zM58.583 40.951c.004-.197.059-.588 0-.773-.011.218-.14.683 0 .773zM58.496 41.595c.027.145-.055.4.043.475-.028-.147.056-.401-.043-.475zM61.072 41.425c-.043 0-.051-.035-.086-.045-.047.082 0 .502.086.432-.004-.055-.053-.061-.041-.131.15-.058.041-.896.041-.256zM58.283 32.41c-.066.012-.006.072.041.086v-.516c-.084-.094-.026.316-.041.43zM59.783 40.695v-.301c-.18-.01-.045.266 0 .301zM59.398 41.339c.043.154-.1.498.086.514-.088-.23.066-.344-.086-.514zM59.269 39.621v.73c.029.219-.057.543.041.688-.029-.461.059-1.03-.041-1.418zM58.24 33.095c-.051.439-.152 1.326-.045 1.76-.012-.125.01-.148.088-.086-.094-.484.047-1.273-.043-1.674zM57.898 17.987c-.012.135-.174.338-.045.472.16-.026.182-.397.045-.472zM57.638 41.339c.02-.236.129-.6 0-.732.006.223-.119.537 0 .732zM57.722 19.145c.025.19.02.415.086.558.006-.218.012-.438-.086-.558zM58.152 34.9c.041.592-.189 1.469-.084 2.016.148-.502.137-1.113.215-1.586.01.031 0 .084.041.084-.137-.153.084-.444-.172-.514zM57.898 37.478c0-.062-.023-.096-.045-.131.053-.004.1-.016.086-.086h-.129c-.008.108-.008.207.088.217zM58.027 30.91c-.014.059-.076.072-.088.125.117-.018.039.16.129.172-.027-.088.053-.282-.041-.297z"/></g></g></svg>