<svg width="480" height="480" viewBox="0 0 360 360" xmlns="http://www.w3.org/2000/svg"><path fill="transparent" d="M0 0h360v360H0V0z"/><path fill="#fff" d="M151.77 10.81c32.22-4.82 65.9-.67 95.62 12.85 37.67 16.67 68.71 47.68 85.66 85.21 8.5 18.57 13.41 38.71 14.9 59.06.16 6.35-.01 12.71.07 19.06.14 6.06-1.18 12.01-1.34 18.06-3.75-7.1-6.77-14.63-11.67-21.07-8.68-11.08-21.28-19.21-35.17-21.81-5.54-.66-11.31-.75-16.67.96-9.98 3.28-18.52 9.81-25.6 17.44-11.37 10.98-19.13 24.88-28.78 37.26-7.66 10.47-16.12 20.73-27.21 27.73-5.18 3.24-11.32 4.87-17.43 4.48-6.28-9.52-10.69-20.15-14.18-30.96-5.84-17.06-11.2-34.28-16.54-51.5-4.84-14.81-10.27-29.53-17.83-43.19-8.15-14.26-19.33-27.8-34.98-34.04-4.61-2.18-10.19-1.87-14.64.58-8.3 4.35-14.35 11.9-19.62 19.42-6.17 13.71-11.77 27.67-17.47 41.58-7.39 17.27-14.87 34.55-20.5 52.49-3.57 11.82-6.93 23.71-9.71 35.75-9.83-24.66-13.08-51.86-10.51-78.24 3.55-34.75 18.04-68.34 41.11-94.6 26.02-30.2 63.09-50.5 102.49-56.52z"/><path fill="#fff" d="M84.78 152.77c3.51-4.75 7.08-9.47 10.95-13.93 8.23 12.08 11.78 26.38 16.28 40.08 5.34 18.27 10.41 36.62 16.39 54.7 5.01 13.22 10.35 26.58 19.29 37.71 9.52 13.23 26.14 20.71 42.32 19.9 8.05-.3 15.42-4.02 22.32-7.87 7.63-4.85 14.3-11.04 20.4-17.68 12.17-14.75 23.27-30.56 37.65-43.29 6.82-5.81 13.95-11.84 22.83-14.13 3.58-.85 7.46-1.97 11.11-1.35 7.09 15.32 10.88 32.09 11.95 48.91 1.05 7.26.92 14.67.52 21.97-20.12 29.02-49.95 51.06-83.26 62.67-17.83 6.19-36.69 9.13-55.53 9.46-21.99-.23-43.98-4.31-64.38-12.6-18.55-7.79-35.93-18.5-50.79-32.1-7.18-7.01-14.62-13.99-20.15-22.42 1.27-11.67 3.62-23.22 5.32-34.84 1.73-11.17 3.87-22.29 6.83-33.2 7.38-21.76 16.06-43.48 29.95-61.99z"/></svg>