<svg xmlns="http://www.w3.org/2000/svg" viewBox="0 0 64 64"><g fill="#28a6de"><path d="M32.26 36.23c0 2.053-2.132 3.72-4.76 3.72-2.624 0-4.758-1.667-4.758-3.72 0-2.052 2.134-3.716 4.758-3.716 2.627 0 4.76 1.664 4.76 3.716"/><path d="M32.26 36.616c0 .566-.458 1.025-1.022 1.025a1.027 1.027 0 01-1.029-1.025V19.187a1.026 1.026 0 012.051 0v17.429M40.753 50.724c0 2.723-2.826 4.934-6.313 4.934-3.491 0-6.313-2.211-6.313-4.934 0-2.726 2.822-4.933 6.313-4.933 3.487 0 6.313 2.207 6.313 4.933"/><path d="M40.753 51.24a1.358 1.358 0 01-2.718 0V28.11a1.359 1.359 0 112.718 0v23.13"/></g><path fill="#56787f" d="M31.749 6.833c-14.958 0-27.12 12.169-27.12 27.12 0 1.389.128 2.218.396 3.823l.137.22h5.577l-.231-.577c-.267-1.384-.402-2.446-.402-3.78 0-11.933 9.711-21.487 21.648-21.487 11.935 0 21.645 9.789 21.645 21.725 0 1.325-.134 2.117-.399 3.506l-.23.613h5.571l.14-.22c.268-1.613.398-2.755.398-4.138 0-14.954-12.167-26.809-27.13-26.809"/><g fill="#34484c"><path d="M63.16 53.34c0 4.568-4.138 8.271-9.243 8.271h-.806c-5.104 0-9.242-3.702-9.242-8.271v-15.1c0-4.568 4.139-8.269 9.242-8.269h.806c5.105 0 9.243 3.701 9.243 8.269v15.1M19.914 53.34c0 4.566-4.138 8.269-9.242 8.269h-.806c-5.105 0-9.242-3.702-9.242-8.269v-15.1c0-4.568 4.137-8.271 9.242-8.271h.806c5.104 0 9.242 3.703 9.242 8.271v15.1"/></g></svg>