<svg xmlns="http://www.w3.org/2000/svg" width="800" height="800" viewBox="0 0 211.667 211.667"><circle cx="105.833" cy="191.167" r="98.044" fill="#23263c" stroke="#fff" stroke-width="15.579" stroke-linecap="round" stroke-linejoin="round" transform="translate(0 -85.333)"/><rect ry=".706" y="13.229" x="97.896" height="185.208" width="15.875" fill="#fff"/><circle transform="translate(0 -85.333)" r="6.615" cy="289.063" cx="105.833" fill="#23263c"/><circle r="6.615" cy="7.937" cx="105.833" fill="#23263c"/><g transform="rotate(-90 104.944 104.944)"><rect ry=".706" y="13.229" x="97.896" height="185.208" width="15.875" fill="#fff"/><circle transform="translate(0 -85.333)" r="6.615" cy="289.063" cx="105.833" fill="#23263c"/><circle r="6.615" cy="7.937" cx="105.833" fill="#23263c"/></g><g transform="rotate(-135 105.843 105.81)"><rect ry=".706" y="13.229" x="97.896" height="185.208" width="15.875" fill="#fff"/><circle transform="translate(0 -85.333)" r="6.615" cy="289.063" cx="105.833" fill="#23263c"/><circle r="6.615" cy="7.937" cx="105.833" fill="#23263c"/></g><g transform="scale(1 -1) rotate(45 361.313 .058)"><rect ry=".706" y="13.229" x="97.896" height="185.208" width="15.875" fill="#fff"/><circle transform="translate(0 -85.333)" r="6.615" cy="289.063" cx="105.833" fill="#23263c"/><circle r="6.615" cy="7.937" cx="105.833" fill="#23263c"/></g><g stroke="#fff"><circle transform="translate(0 -85.333)" cx="105.833" cy="191.167" r="31.395" fill="#23263c" stroke-width="16.586" stroke-linecap="round" stroke-linejoin="round"/><path d="M79.15 111.877c.954 0 3.812-20.017 22.151-9.618 18.34 10.398 31.201 10.658 33.345-1.04" fill="none" stroke-width="10.668"/></g></svg>