<svg xmlns="http://www.w3.org/2000/svg" width="176.028" height="152.395" viewBox="0 0 176.028 152.395"><g fill-rule="evenodd" clip-rule="evenodd" fill="#FFF" stroke="#FFF" stroke-width=".216" stroke-miterlimit="22.926"><path d="M62.366 106.934l-.61 2.266c-7.83.841-43.938-1.574-47.277 1.13l35.5-.195c4.632-.001 9.921.788 11.777-.935l.61-2.266c-1.716-2.187-5.843-1.14-11.543-1.139l-35.731-.012-.052-60.489 46.641.013-.086 54.072 2.585-.099c1.614 0 1.009.311 1.009-1.687-2.315 0-1.889-.502-1.009 1.687-2.265-3.227-1.626-2.125-1.543-6.758l.865-48.179H14.479v62.547l47.887.044zM173.044 151.689l-7.464-8.299.199-22.976h-43.955c-3.871 0-11.253 1.484-13.523-1.689 4.215-2.4 48.904-.846 57.477-.846-.008-3.33.737-2.942-1.526-5.205-1.461-1.459-2.504-2.682-4.391-3.247l-41.449.037c-3.906.024-3.839.852-5.039-1.728 3.942-2.498 41.786-.062 44.84-.762 3.617-.826.962.546 2.494-1.77-12.063 2.752-34.423-1.126-47.773.942l.657 3.971 47.316.12c2.674 4.843 3.743.641 3.801 6.816l-56.543.435.554 3.493 56.052.052.12 22.187c2.54 2.409 6.779 5.833 8.153 8.469z"/><g><path d="M78.902 93.31l16.72.058-2.793 10.064c-3.541-1.672-8.248-.082-10.949-.55l-2.978-9.572zm-13.714 4.284c0 1.997.605 1.687-1.009 1.687l-2.585.099.086-54.072-46.64-.014.052 60.489 35.731.012c5.7-.001 9.827-1.048 11.543 1.139l-.61 2.266c-1.856 1.723-7.146.934-11.777.935l-35.5.195c-4.165.988-5.068 3.432-5.071 7.55h56.631v2.535H9.407l-.02 22.605c-.543 1.694-6.637 5.155-7.587 8.669h63.394c1.946-.36 2.087-1.579 5.727-5.262 3.072-3.11 2.764-3.833 2.746-8.241-.031-7.614-.021-15.229-.021-22.842 5.896-2.962 5.662-4.976 13.501-5.112 7.715-.134 8.553 1.293 14.392 5.112l.016 28.521c5.632 5.01 6.137 7.582 7.592 7.823h63.898c-1.374-2.636-5.613-6.06-8.154-8.468l-.12-22.187-56.052-.052-.554-3.493 56.543-.435c-.058-6.176-1.127-1.974-3.801-6.816l-47.316-.12-.657-3.971c13.351-2.068 35.71 1.81 47.773-.942v-60.86h-48.18v54.095c-7.135-3.584-19.341-15.922-25.43-17.822-3.478 2.609-20.711 14.758-21.909 16.977zM.108 7.998c0 2.105.776 6.64 1.063 9.081L13.722 30.72l49.567.013L75.863 16.99c.734-5.309 1.541-11.367 2.008-16.598H59.276l-.314 11.306-9.829.528V.391H28.002v11.834l-9.615-.315L17.859.391H.108v7.607zM112.744 30.602l48.807.213c3.47-3.849 7.217-7.439 10.815-11.154 2.802-2.892 3.554-14.698 3.554-19.27h-18.596v11.834H147.18V.391c-5.269 0-16.156-.92-20.575.556-.308 3.047 1.107 6.61-.266 10.723l-9.586.631-.002-11.909h-19.44c2.396 5.235-.259 14.293 3.991 18.831 3.58 3.819 7.675 7.664 11.442 11.379zM112.526 41.808h44.798l3.698-.314.643-3.899-.114-4.24h-49.025zM14.479 33.355h48.179v8.453H14.479z"/></g></g></svg>