<svg version="1.0" xmlns="http://www.w3.org/2000/svg" width="21.333" height="21.333" viewBox="0 0 16 16"><path d="M.063 8v8h3.624c3.426 0 3.62-.006 3.582-.113-.025-.056-.938-2.256-2.025-4.887L3.263 6.219 2.788 6.2l-.475-.019V3.125h6.875V6.188h-.532c-.294 0-.531.018-.531.043-.006.132 1.844 5.325 1.875 5.288.044-.05 1.938-5.231 1.938-5.294 0-.019-.226-.037-.5-.037h-.5V3.125H16V0H.062v8zM15.081 6.294c-.025.062-.881 2.262-1.906 4.887a789.474 789.474 0 00-1.863 4.794c0 .012 1.057.025 2.344.025H16V6.187h-.438c-.362 0-.45.02-.48.107z"/></svg>